<svg xmlns="http://www.w3.org/2000/svg" width="160" height="32" viewBox="0 0 160 32" fill="none"><path d="M16.0003 23.0266L24.2403 28L22.0537 18.6266L29.3337 12.32L19.747 11.4933L16.0003 2.66663L12.2537 11.4933L2.66699 12.32L9.93366 18.6266L7.76033 28L16.0003 23.0266Z" fill="#FEA501"></path><path d="M80.0003 23.0266L88.2403 28L86.0537 18.6266L93.3337 12.32L83.747 11.4933L80.0003 2.66663L76.2537 11.4933L66.667 12.32L73.9337 18.6266L71.7603 28L80.0003 23.0266Z" fill="#FEA501"></path><path d="M48.0003 23.0266L56.2403 28L54.0537 18.6266L61.3337 12.32L51.747 11.4933L48.0003 2.66663L44.2537 11.4933L34.667 12.32L41.9337 18.6266L39.7603 28L48.0003 23.0266Z" fill="#FEA501"></path><path d="M112 23.0266L120.24 28L118.054 18.6266L125.334 12.32L115.747 11.4933L112 2.66663L108.254 11.4933L98.667 12.32L105.934 18.6266L103.76 28L112 23.0266Z" fill="#FEA501"></path><path d="M144 23.0266L152.24 28L150.054 18.6266L157.334 12.32L147.747 11.4933L144 2.66663L140.254 11.4933L130.667 12.32L137.934 18.6266L135.76 28L144 23.0266Z" fill="#FEA501"></path></svg>