<svg xmlns="http://www.w3.org/2000/svg" width="36" height="36" viewBox="0 0 36 36" fill="none"><g clip-path="url(#clip0_326_306)"><path d="M28.575 35.625C24.675 35.625 21.525 32.475 21.525 28.575C21.525 24.675 24.675 21.525 28.575 21.525C32.475 21.525 35.625 24.675 35.625 28.575C35.625 32.475 32.475 35.625 28.575 35.625ZM28.575 24.525C26.325 24.525 24.45 26.4 24.45 28.65C24.45 30.9 26.325 32.775 28.575 32.775C30.825 32.775 32.7 30.9 32.7 28.65C32.7 26.325 30.825 24.525 28.575 24.525ZM7.425 35.625C3.525 35.625 0.375 32.475 0.375 28.575C0.375 24.675 3.525 21.525 7.425 21.525C11.325 21.525 14.475 24.675 14.475 28.575C14.475 32.475 11.325 35.625 7.425 35.625ZM7.425 24.525C5.175 24.525 3.3 26.4 3.3 28.65C3.3 30.9 5.175 32.775 7.425 32.775C9.675 32.775 11.55 30.9 11.55 28.65C11.55 26.325 9.675 24.525 7.425 24.525Z" fill="white"></path><path d="M18.075 31.95C17.325 31.95 16.65 31.35 16.575 30.6L16.2 23.7L9.225 18.975C8.85 18.75 8.625 18.3 8.625 17.85C8.625 17.4 8.775 16.95 9.075 16.65L18.15 7.94995C18.45 7.64995 18.9 7.49995 19.35 7.57495C19.8 7.64995 20.175 7.87495 20.4 8.24995L24.75 15.6L28.425 15.45C29.25 15.45 29.925 16.05 30 16.875C30.075 17.7 29.4 18.375 28.575 18.45L24 18.675C23.475 18.675 22.95 18.45 22.65 17.925L18.75 11.475L12.3 17.7L18.375 21.825C18.75 22.05 18.975 22.5 19.05 22.95L19.5 30.6C19.575 31.425 18.9 32.1 18.15 32.175C18.15 31.95 18.15 31.95 18.075 31.95ZM26.25 8.84995C23.925 8.84995 21.975 6.97495 21.975 4.64995C21.975 2.32495 23.85 0.449951 26.25 0.449951C28.575 0.449951 30.525 2.32495 30.525 4.64995C30.45 6.97495 28.575 8.84995 26.25 8.84995ZM26.25 3.29995C25.5 3.29995 24.975 3.89995 24.975 4.57495C24.975 5.32495 25.575 5.84995 26.25 5.84995C27 5.84995 27.525 5.24995 27.525 4.57495C27.525 3.89995 26.925 3.29995 26.25 3.29995Z" fill="white"></path></g><defs><clipPath id="clip0_326_306"><rect width="36" height="36" fill="white"></rect></clipPath></defs></svg>