<svg xmlns="http://www.w3.org/2000/svg" xmlns:xlink="http://www.w3.org/1999/xlink" id="Layer_1" x="0px" y="0px" viewBox="0 0 669 113" style="enable-background:new 0 0 669 113;" xml:space="preserve"><style type="text/css">	.st0{fill:#F36E21;}	.st1{fill:#FFFFFF;}	.st2{fill:none;}</style><path class="st0" d="M173.5,67.6h23.1l-0.3,1.2c-1.5,7-0.9,10.3,4.6,10.3c5.7,0,7.8-2.5,9.8-12l7.5-35.4h24.9l-7.1,33.5 c-3.1,14.6-8.6,27.3-38.1,27.3c-27.9,0-27.4-11.9-25.5-20.9L173.5,67.6z"></path><polygon class="st0" points="247.6,42.7 237.3,91.2 284.1,91.2 286.2,80.5 259.2,80.5 261.1,72.1 286.2,72.1 288.4,61.9 263.3,61.9  265,53.9 302.7,53.9 294.8,91.2 315.2,91.2 323.2,53.9 339.1,53.9 341.4,42.7 "></polygon><path class="st0" d="M348.7,31.7h40.5c18,0,24.4,5.4,22.2,15.4c-1.7,8-8.6,11.8-16.8,13.7l0,0.2c8.3,0.5,15.5,4.5,13.3,14.7 c-1,4.6-3.5,8.5-6.6,10.7c-4.6,3.3-8.7,4.6-21.5,4.6h-43.7L348.7,31.7z M363.3,80.5h7.4c8.6,0,12.2-2.2,13.3-7.1 c1-4.9-1.6-7.1-10.2-7.1h-7.4L363.3,80.5z M368.5,55.7h7.4c7.2,0,10.1-2.5,10.9-6.5c0.9-4.2-0.4-6.5-8.2-6.5h-7.3L368.5,55.7z"></path><path class="st0" d="M498.6,42.7h-25.5l-26.5,36.7h-16.2l7.8-36.7h-20.4l-10.3,48.5h50.7l5.5-8.1h25.1l1.8,8.1H513L498.6,42.7z  M470.7,72.6l11.5-16.9l3.9,16.9H470.7z"></path><path class="st0" d="M555.5,60.7c0.7-6-1.2-8.7-6.8-8.7c-7.9,0-12.1,6.9-13.8,14.9c-1.7,8.1-0.5,14.9,7.4,14.9 c6.2,0,9.8-2.9,11.4-9.1h20.8c-1.1,4.4-2.4,8.6-7,12.2c-6.6,5.2-16.6,7.5-27,7.5c-24.3,0-30.2-10-26.9-25.5 c2.4-11.5,10.6-25.5,37.8-25.5c12.2,0,20.1,2.3,23.5,6.3c2.4,2.9,2.8,5.8,1.3,13H555.5z"></path><path class="st0" d="M584.2,42.7h20.4l-10.3,48.5h-20.4L584.2,42.7z M599.9,66l22.4-23.3h25.2l-24.2,21.9l16.1,26.6h-25.7L599.9,66z "></path><polygon class="st1" points="644.1,86.4 642.4,86.4 642.4,85.8 646.5,85.8 646.5,86.4 644.8,86.4 644.8,91.3 644.1,91.3 "></polygon><path class="st1" d="M651.7,88.9c0-0.8-0.1-1.7-0.1-2.4h0c-0.2,0.6-0.4,1.3-0.7,2.1l-1,2.7h-0.5l-0.9-2.6c-0.3-0.8-0.5-1.5-0.6-2.1 h0c0,0.7-0.1,1.6-0.1,2.4l-0.1,2.4h-0.7l0.4-5.5h0.9l0.9,2.7c0.2,0.7,0.4,1.3,0.6,1.8h0c0.1-0.6,0.3-1.2,0.6-1.8l1-2.7h0.9l0.3,5.5 h-0.7L651.7,88.9z"></path><path class="st1" d="M147,31.7c4.9,0,8.1,3.6,7.3,8l-2,10.6c-0.9,4.4-5.5,8-10.4,8l-22.3,0c-2.8,0-4.7-2.1-4.2-4.6l1.3-7.3 c0.1-1.7-1.2-3-3.1-3h-2.2c-2,0-3.8,1.4-4.3,3.2l-7.5,37.2c-0.9,4.4-5.5,8-10.4,8l-64.5,0c-4.9,0-8.2-3.6-7.3-8l2-10.6 c0.9-4.4,5.5-8,10.4-8l22.3,0c2.8,0,4.7,2.1,4.2,4.6l-1.3,7.3c-0.1,1.7,1.2,3,3.1,3h2.2c2,0,3.8-1.4,4.3-3.2l7.5-37.2 c0.9-4.4,5.5-8,10.4-8L147,31.7z"></path><path class="st1" d="M36.7,31.7c-4.9,0-9.5,3.7-10.4,8.1l-2,10.6c-0.9,4.4,2.4,8,7.3,8l22.5,0c2.8,0,5.5-2.1,6-4.6l3.4-17.5 c0.5-2.6-1.4-4.7-4.2-4.7L36.7,31.7z"></path><path class="st1" d="M113,92c-2.8,0-4.7-2.1-4.2-4.7l3.4-17.5c0.5-2.6,3.2-4.6,6-4.6l22.5,0c4.9,0,8.1,3.6,7.3,8l-2,10.6 c-0.9,4.4-5.5,8.1-10.4,8.1H113z"></path><rect x="-116" y="-149.3" class="st2" width="841.9" height="595.3"></rect></svg>