<svg width="200" height="24" viewBox="0 0 200 24" fill="none" xmlns="http://www.w3.org/2000/svg"><path fill-rule="evenodd" clip-rule="evenodd" d="M192.397 7.83647C192.397 7.05765 193.112 6.55177 194.208 6.55177C195.449 6.55177 196.439 7.24589 196.648 8.34236H199.891C199.555 5.37294 197.533 3.70942 194.271 3.70942C191.43 3.70942 189.072 5.43647 189.072 8.00589C189.072 11.1965 191.725 11.9386 193.891 12.5447C195.387 12.9631 196.651 13.3166 196.651 14.3659C196.651 15.46 195.745 15.9447 194.589 15.9447C192.884 15.9447 191.894 14.9965 191.684 13.4388H188.442C188.714 16.7235 190.967 18.7894 194.589 18.7894C197.641 18.7894 199.999 17.0835 199.999 14.1565C199.999 10.6761 197.174 9.95976 194.969 9.40065C193.557 9.04276 192.399 8.74927 192.399 7.83647H192.397ZM122.587 13.2306H122.59V13.2329L122.587 13.2306ZM122.59 13.2306H126.587C126.397 14.8306 125.009 15.9694 123.114 15.9694C120.588 15.9694 118.926 14.1365 118.926 11.2518C118.926 8.36705 120.588 6.53411 122.989 6.53411C124.737 6.53411 125.978 7.56705 126.211 9.03999H129.557C129.263 5.90116 126.756 3.71058 122.989 3.71058C118.568 3.71058 115.58 6.67999 115.58 11.2518C115.58 16.1388 118.862 18.7929 122.674 18.7929C124.591 18.7929 126.02 18.0565 126.611 17.1506V18.6259H129.684V10.6212H122.59V13.2306ZM70.1083 3.87765H73.4545V18.6212H70.1083V3.87765ZM93.5577 3.87765H96.9039V18.6212H93.5577V3.87765ZM86.569 14.1341C86.569 14.1341 86.4843 12.6188 86.4843 10.7224V3.87766H89.8094V18.6212H85.7671L81.8518 11.4588C80.9676 9.77413 80.4197 8.36236 80.4197 8.36236C80.4197 8.36236 80.5255 9.87766 80.5255 11.7741V18.6188H77.1793V3.87531H81.2216L85.1581 11.0377C86.0422 12.7224 86.569 14.1341 86.569 14.1341ZM109.936 10.7224C109.936 12.6188 110.021 14.1341 110.021 14.1341C110.021 14.1341 109.494 12.7224 108.61 11.0377L104.673 3.87531H100.631V18.6188H103.977V11.7741C103.977 9.87766 103.871 8.36236 103.871 8.36236C103.871 8.36236 104.419 9.77413 105.304 11.4588L109.219 18.6212H113.261V3.87766H109.936V10.7224ZM156.47 12.4094H150.914V15.7788H157.924V18.6212H147.567V3.87763H157.818V6.72234H150.914V9.56469H156.47V12.4094ZM159.102 18.6212L164.701 3.87763H168.404L173.982 18.6212H170.403L169.288 15.6517H163.689L162.575 18.6212H159.102ZM166.49 7.98587L164.722 12.8094H168.28L166.49 7.98587ZM188.11 3.87881H183.71L178.659 9.3141V3.87881H175.311V18.6223H178.659V13.8412L180.237 12.1776L184.531 18.6223H188.594L182.469 9.81999L188.11 3.87881ZM134.578 3.87763H140.725C143.756 3.87763 145.714 5.67057 145.714 8.47057C145.714 11.2706 143.756 13.1035 140.725 13.1035H137.903V18.6212H134.578V3.87763ZM137.905 10.2612H140.346C141.609 10.2612 142.387 9.54587 142.387 8.47057C142.387 7.39528 141.609 6.72234 140.346 6.72234H137.905V10.2612ZM28.4487 6.72234H32.7638V18.6212H36.1123V6.72234H40.4274V3.87764H28.4487V6.72234ZM54.172 17.9035L59.4982 3.87764H63.2019L68.7797 18.6212H65.2007L64.086 15.6518H58.4871L57.3724 18.6212H50.7412L47.5619 12.8494H45.7089V18.6212H42.3627V3.87764H48.2579C51.1198 3.87764 53.0362 5.64705 53.0362 8.3647C53.0362 9.9647 52.2156 11.3976 50.8258 12.1976L54.172 17.9035ZM45.7089 10.0071H47.6677C48.9305 10.0071 49.6877 9.37411 49.6877 8.3647C49.6877 7.35529 48.9305 6.72235 47.6677 6.72235H45.7089V10.0071ZM61.2877 7.98588L59.5194 12.8094H63.0772L61.2877 7.98588Z" fill="#000000"></path><path fill-rule="evenodd" clip-rule="evenodd" d="M10.7432 0H15.3882L7.20747 18.6126H2.56246L10.7432 0ZM2.6613 5.3986H7.30631L4.64501 11.4546H0L2.6613 5.3986ZM14.0789 5.3986L5.9037 24.0001H10.5487L18.7239 5.3986H14.0789ZM15.4088 15.3619L20.4483 3.89625H25.0933L20.0538 15.3619H15.4088Z" fill="#3177FF"></path></svg>