<svg xmlns="http://www.w3.org/2000/svg" width="160" height="48" viewBox="0 0 160 48" fill="none"><path d="M154.308 47.407H5.605C2.515 47.407 0 44.885 0 41.797V5.602C0 2.513 2.515 0 5.605 0H154.308C157.396 0 160 2.513 160 5.601V41.798C160 44.885 157.396 47.408 154.308 47.408V47.407Z" fill="#A6A6A6"></path><path d="M158.853 41.7999C158.853 44.3069 156.821 46.3379 154.309 46.3379H5.60505C3.09305 46.3379 1.05505 44.3069 1.05505 41.7989V5.59993C1.05505 3.09293 3.09305 1.05493 5.60505 1.05493H154.308C156.821 1.05493 158.853 3.09293 158.853 5.59993V41.7999V41.7999Z" fill="black"></path><path d="M35.707 23.4479C35.673 19.6279 38.835 17.7689 38.979 17.6829C37.189 15.0719 34.413 14.7149 33.437 14.6869C31.107 14.4409 28.845 16.0819 27.657 16.0819C26.446 16.0819 24.617 14.7099 22.647 14.7509C20.11 14.7899 17.737 16.2579 16.436 18.5389C13.75 23.1879 15.753 30.0209 18.326 33.7789C19.613 35.6189 21.117 37.6749 23.086 37.6019C25.012 37.5219 25.731 36.3739 28.056 36.3739C30.358 36.3739 31.034 37.6019 33.042 37.5559C35.109 37.5229 36.41 35.7069 37.652 33.8499C39.139 31.7399 39.737 29.6629 39.76 29.5559C39.712 29.5389 35.746 28.0259 35.707 23.4479V23.4479ZM31.914 12.2139C32.95 10.9189 33.659 9.15692 33.462 7.36792C31.963 7.43492 30.088 8.40492 29.008 9.67192C28.053 10.7889 27.2 12.6189 27.42 14.3389C29.104 14.4649 30.834 13.4889 31.914 12.2139Z" fill="white"></path><path d="M63.579 37.338H60.888L59.414 32.705H54.288L52.883 37.338H50.264L55.341 21.565H58.478L63.58 37.338H63.579ZM58.969 30.761L57.636 26.643C57.495 26.222 57.23 25.231 56.841 23.671H56.793C56.638 24.343 56.388 25.333 56.044 26.643L54.734 30.761H58.969V30.761ZM76.637 31.511C76.637 33.446 76.114 34.974 75.069 36.097C74.132 37.096 72.969 37.595 71.582 37.595C70.084 37.595 69.008 37.057 68.352 35.981H68.305V41.971H65.778V29.71C65.778 28.494 65.746 27.246 65.684 25.966H67.907L68.047 27.768H68.095C68.938 26.41 70.217 25.732 71.933 25.732C73.274 25.732 74.394 26.262 75.29 27.322C76.189 28.385 76.637 29.781 76.637 31.512V31.511ZM74.062 31.604C74.062 30.497 73.814 29.584 73.313 28.866C72.767 28.117 72.033 27.742 71.113 27.742C70.49 27.742 69.923 27.952 69.418 28.362C68.91 28.777 68.578 29.319 68.423 29.99C68.345 30.302 68.306 30.558 68.306 30.76V32.656C68.306 33.484 68.56 34.182 69.066 34.752C69.574 35.322 70.233 35.606 71.044 35.606C71.995 35.606 72.736 35.239 73.266 34.506C73.797 33.773 74.062 32.806 74.062 31.604V31.604ZM89.718 31.511C89.718 33.446 89.195 34.974 88.148 36.097C87.213 37.096 86.051 37.595 84.663 37.595C83.165 37.595 82.089 37.057 81.434 35.981H81.387V41.971H78.86V29.71C78.86 28.494 78.828 27.246 78.766 25.966H80.989L81.129 27.768H81.177C82.019 26.41 83.297 25.732 85.015 25.732C86.355 25.732 87.475 26.262 88.374 27.322C89.268 28.385 89.718 29.781 89.718 31.512V31.511ZM87.143 31.604C87.143 30.497 86.893 29.584 86.393 28.866C85.847 28.117 85.115 27.742 84.195 27.742C83.57 27.742 83.005 27.952 82.497 28.362C81.99 28.777 81.659 29.319 81.504 29.99C81.427 30.302 81.387 30.558 81.387 30.76V32.656C81.387 33.484 81.641 34.182 82.145 34.752C82.653 35.321 83.312 35.606 84.125 35.606C85.076 35.606 85.817 35.239 86.347 34.506C86.877 33.773 87.143 32.806 87.143 31.604ZM104.343 32.915C104.343 34.256 103.877 35.348 102.942 36.19C101.914 37.111 100.484 37.571 98.646 37.571C96.948 37.571 95.588 37.244 94.558 36.589L95.143 34.483C96.253 35.153 97.47 35.49 98.796 35.49C99.748 35.49 100.489 35.274 101.021 34.845C101.551 34.416 101.815 33.84 101.815 33.122C101.815 32.482 101.597 31.942 101.159 31.505C100.724 31.068 99.998 30.662 98.983 30.285C96.222 29.256 94.843 27.747 94.843 25.763C94.843 24.467 95.326 23.403 96.294 22.576C97.259 21.748 98.546 21.334 100.155 21.334C101.591 21.334 102.783 21.584 103.735 22.084L103.103 24.144C102.214 23.66 101.209 23.418 100.084 23.418C99.195 23.418 98.501 23.637 98.004 24.073C97.582 24.463 97.371 24.938 97.371 25.501C97.371 26.125 97.612 26.641 98.096 27.046C98.516 27.42 99.281 27.826 100.39 28.263C101.747 28.809 102.744 29.448 103.385 30.18C104.024 30.91 104.343 31.824 104.343 32.915V32.915ZM112.698 27.861H109.912V33.383C109.912 34.787 110.402 35.489 111.386 35.489C111.838 35.489 112.212 35.449 112.509 35.372L112.579 37.29C112.081 37.476 111.425 37.57 110.614 37.57C109.616 37.57 108.836 37.265 108.273 36.657C107.713 36.048 107.43 35.027 107.43 33.591V27.859H105.77V25.962H107.43V23.88L109.912 23.13V25.963H112.697V27.862L112.698 27.861ZM125.264 31.558C125.264 33.306 124.764 34.741 123.766 35.863C122.719 37.019 121.33 37.595 119.598 37.595C117.93 37.595 116.601 37.041 115.61 35.935C114.62 34.828 114.124 33.43 114.124 31.746C114.124 29.984 114.634 28.54 115.657 27.418C116.677 26.294 118.054 25.732 119.786 25.732C121.454 25.732 122.797 26.286 123.811 27.394C124.781 28.469 125.264 29.857 125.264 31.558ZM122.642 31.639C122.642 30.59 122.418 29.691 121.964 28.941C121.434 28.033 120.677 27.581 119.696 27.581C118.68 27.581 117.908 28.034 117.379 28.941C116.925 29.692 116.701 30.606 116.701 31.687C116.701 32.736 116.925 33.635 117.379 34.384C117.925 35.292 118.689 35.744 119.673 35.744C120.638 35.744 121.395 35.283 121.942 34.361C122.407 33.596 122.642 32.687 122.642 31.639ZM133.477 28.187C133.227 28.141 132.96 28.117 132.681 28.117C131.791 28.117 131.104 28.452 130.621 29.124C130.2 29.717 129.989 30.466 129.989 31.37V37.338H127.463L127.487 29.546C127.487 28.236 127.455 27.042 127.392 25.966H129.593L129.686 28.142H129.756C130.022 27.394 130.443 26.792 131.019 26.34C131.582 25.934 132.189 25.731 132.845 25.731C133.079 25.731 133.29 25.748 133.477 25.777V28.187V28.187ZM144.778 31.113C144.778 31.566 144.748 31.948 144.685 32.259H137.105C137.135 33.383 137.501 34.242 138.205 34.835C138.843 35.365 139.67 35.63 140.685 35.63C141.806 35.63 142.83 35.45 143.751 35.092L144.147 36.846C143.071 37.316 141.801 37.549 140.334 37.549C138.571 37.549 137.187 37.029 136.179 35.993C135.174 34.956 134.67 33.563 134.67 31.816C134.67 30.101 135.139 28.673 136.076 27.534C137.057 26.318 138.384 25.71 140.052 25.71C141.692 25.71 142.932 26.318 143.775 27.534C144.442 28.5 144.778 29.693 144.778 31.113ZM142.368 30.458C142.385 29.708 142.22 29.062 141.878 28.515C141.44 27.812 140.768 27.462 139.864 27.462C139.038 27.462 138.366 27.804 137.853 28.492C137.432 29.038 137.182 29.693 137.105 30.457H142.368V30.458Z" fill="white"></path><path d="M58.133 11.862C58.133 13.257 57.715 14.307 56.879 15.012C56.106 15.663 55.006 15.989 53.581 15.989C52.875 15.989 52.271 15.959 51.764 15.897V8.27502C52.424 8.16802 53.135 8.11402 53.904 8.11402C55.26 8.11402 56.284 8.40902 56.974 8.99902C57.746 9.66602 58.134 10.62 58.134 11.862H58.133ZM56.823 11.897C56.823 10.992 56.584 10.299 56.106 9.81602C55.626 9.33302 54.927 9.09102 54.006 9.09102C53.616 9.09102 53.282 9.11802 53.006 9.17202V14.966C53.159 14.99 53.439 15.001 53.846 15.001C54.796 15.001 55.53 14.736 56.046 14.208C56.563 13.679 56.824 12.908 56.824 11.897H56.823ZM65.077 13.081C65.077 13.94 64.832 14.644 64.341 15.196C63.827 15.764 63.146 16.047 62.295 16.047C61.475 16.047 60.821 15.776 60.335 15.231C59.848 14.687 59.605 14.001 59.605 13.173C59.605 12.308 59.855 11.598 60.358 11.047C60.86 10.496 61.536 10.22 62.387 10.22C63.207 10.22 63.867 10.491 64.365 11.035C64.839 11.564 65.077 12.246 65.077 13.081V13.081ZM63.789 13.121C63.789 12.606 63.678 12.163 63.456 11.795C63.196 11.349 62.824 11.126 62.342 11.126C61.843 11.126 61.464 11.349 61.203 11.795C60.98 12.163 60.87 12.613 60.87 13.144C60.87 13.659 60.981 14.101 61.203 14.47C61.472 14.915 61.847 15.138 62.33 15.138C62.804 15.138 63.176 14.912 63.444 14.458C63.674 14.082 63.789 13.637 63.789 13.121V13.121ZM74.388 10.334L72.64 15.92H71.502L70.778 13.494C70.594 12.889 70.445 12.287 70.328 11.689H70.306C70.199 12.303 70.049 12.904 69.857 13.494L69.088 15.92H67.938L66.293 10.334H67.57L68.202 12.99C68.354 13.618 68.48 14.216 68.581 14.783H68.603C68.696 14.316 68.849 13.721 69.064 13.001L69.857 10.335H70.869L71.629 12.945C71.813 13.581 71.962 14.194 72.077 14.784H72.111C72.196 14.209 72.322 13.596 72.491 12.944L73.169 10.334H74.389H74.388ZM80.827 15.921H79.585V12.721C79.585 11.734 79.211 11.241 78.459 11.241C78.091 11.241 77.793 11.376 77.562 11.648C77.333 11.919 77.217 12.239 77.217 12.606V15.919H75.975V11.931C75.975 11.441 75.96 10.908 75.93 10.332H77.022L77.08 11.206H77.114C77.259 10.934 77.474 10.71 77.758 10.531C78.094 10.323 78.471 10.217 78.884 10.217C79.405 10.217 79.839 10.385 80.184 10.723C80.613 11.137 80.827 11.754 80.827 12.575V15.921V15.921ZM84.252 15.92H83.012V7.77002H84.252V15.92ZM91.565 13.081C91.565 13.94 91.32 14.644 90.829 15.196C90.315 15.764 89.632 16.047 88.782 16.047C87.961 16.047 87.308 15.776 86.822 15.231C86.336 14.687 86.093 14.001 86.093 13.173C86.093 12.308 86.343 11.598 86.846 11.047C87.348 10.496 88.024 10.22 88.874 10.22C89.694 10.22 90.353 10.491 90.853 11.035C91.327 11.564 91.565 12.246 91.565 13.081V13.081ZM90.275 13.121C90.275 12.606 90.165 12.163 89.943 11.795C89.683 11.349 89.311 11.126 88.83 11.126C88.33 11.126 87.95 11.349 87.69 11.795C87.468 12.163 87.358 12.613 87.358 13.144C87.358 13.659 87.469 14.101 87.691 14.47C87.96 14.915 88.334 15.138 88.818 15.138C89.292 15.138 89.663 14.912 89.931 14.458C90.161 14.082 90.276 13.637 90.276 13.121H90.275ZM97.576 15.921H96.461L96.369 15.277H96.334C95.953 15.79 95.409 16.047 94.702 16.047C94.175 16.047 93.748 15.877 93.427 15.541C93.135 15.235 92.99 14.855 92.99 14.403C92.99 13.721 93.274 13.2 93.847 12.84C94.417 12.48 95.221 12.303 96.256 12.312V12.207C96.256 11.471 95.87 11.104 95.096 11.104C94.545 11.104 94.059 11.243 93.639 11.518L93.387 10.702C93.906 10.381 94.547 10.22 95.303 10.22C96.763 10.22 97.496 10.99 97.496 12.53V14.588C97.496 15.147 97.523 15.591 97.576 15.92V15.921ZM96.286 14.001V13.139C94.916 13.115 94.232 13.491 94.232 14.265C94.232 14.556 94.31 14.775 94.47 14.92C94.63 15.066 94.834 15.138 95.077 15.138C95.349 15.138 95.604 15.052 95.837 14.88C96.07 14.707 96.213 14.488 96.267 14.219C96.28 14.159 96.287 14.085 96.287 14L96.286 14.001ZM104.634 15.921H103.533L103.475 15.023H103.44C103.088 15.706 102.489 16.047 101.646 16.047C100.973 16.047 100.412 15.783 99.968 15.254C99.523 14.726 99.302 14.04 99.302 13.197C99.302 12.293 99.542 11.56 100.026 11.001C100.494 10.479 101.068 10.219 101.75 10.219C102.5 10.219 103.026 10.471 103.324 10.977H103.348V7.77102H104.591V14.416C104.591 14.96 104.605 15.462 104.635 15.921H104.634ZM103.347 13.564V12.633C103.347 12.472 103.335 12.341 103.313 12.242C103.243 11.943 103.093 11.692 102.863 11.489C102.633 11.286 102.353 11.184 102.033 11.184C101.569 11.184 101.207 11.368 100.94 11.737C100.676 12.105 100.542 12.576 100.542 13.151C100.542 13.703 100.668 14.151 100.923 14.496C101.193 14.863 101.555 15.047 102.009 15.047C102.417 15.047 102.743 14.894 102.99 14.587C103.23 14.304 103.347 13.963 103.347 13.564ZM115.257 13.081C115.257 13.94 115.012 14.644 114.521 15.196C114.007 15.764 113.326 16.047 112.474 16.047C111.655 16.047 111.002 15.776 110.514 15.231C110.028 14.687 109.784 14.001 109.784 13.173C109.784 12.308 110.035 11.598 110.538 11.047C111.04 10.496 111.716 10.22 112.568 10.22C113.387 10.22 114.047 10.491 114.545 11.035C115.019 11.564 115.257 12.246 115.257 13.081V13.081ZM113.97 13.121C113.97 12.606 113.858 12.163 113.637 11.795C113.375 11.349 113.005 11.126 112.522 11.126C112.024 11.126 111.644 11.349 111.382 11.795C111.16 12.163 111.05 12.613 111.05 13.144C111.05 13.659 111.16 14.101 111.383 14.47C111.652 14.915 112.026 15.138 112.51 15.138C112.984 15.138 113.357 14.912 113.625 14.458C113.854 14.082 113.97 13.637 113.97 13.121ZM121.935 15.921H120.695V12.721C120.695 11.734 120.32 11.241 119.567 11.241C119.199 11.241 118.901 11.376 118.671 11.648C118.441 11.919 118.327 12.239 118.327 12.606V15.919H117.083V11.931C117.083 11.441 117.069 10.908 117.039 10.332H118.129L118.188 11.206H118.222C118.368 10.934 118.584 10.71 118.866 10.531C119.204 10.323 119.579 10.217 119.993 10.217C120.513 10.217 120.947 10.385 121.292 10.723C121.722 11.137 121.935 11.754 121.935 12.575V15.921V15.921ZM130.295 11.264H128.927V13.978C128.927 14.668 129.17 15.013 129.651 15.013C129.874 15.013 130.059 14.993 130.204 14.955L130.236 15.897C129.991 15.989 129.669 16.035 129.272 16.035C128.782 16.035 128.399 15.886 128.123 15.587C127.846 15.289 127.708 14.787 127.708 14.081V11.264H126.892V10.334H127.708V9.31002L128.926 8.94202V10.332H130.293V11.264H130.295V11.264ZM136.87 15.921H135.627V12.743C135.627 11.742 135.252 11.24 134.502 11.24C133.926 11.24 133.532 11.53 133.317 12.111C133.28 12.234 133.259 12.383 133.259 12.558V15.918H132.018V7.77102H133.258V11.138H133.282C133.674 10.525 134.234 10.22 134.961 10.22C135.475 10.22 135.901 10.388 136.238 10.726C136.659 11.146 136.87 11.772 136.87 12.599V15.921ZM143.653 12.863C143.653 13.086 143.636 13.273 143.607 13.426H139.882C139.898 13.978 140.076 14.399 140.421 14.69C140.736 14.951 141.143 15.081 141.641 15.081C142.191 15.081 142.694 14.994 143.147 14.817L143.341 15.68C142.811 15.91 142.188 16.025 141.466 16.025C140.601 16.025 139.919 15.77 139.426 15.26C138.931 14.75 138.686 14.067 138.686 13.209C138.686 12.366 138.914 11.664 139.376 11.105C139.856 10.508 140.507 10.209 141.329 10.209C142.132 10.209 142.743 10.508 143.155 11.105C143.488 11.579 143.653 12.165 143.653 12.863V12.863ZM142.468 12.542C142.478 12.172 142.395 11.855 142.227 11.587C142.011 11.243 141.683 11.07 141.239 11.07C140.833 11.07 140.503 11.238 140.25 11.576C140.044 11.845 139.922 12.166 139.882 12.542H142.468Z" fill="white"></path></svg>