<svg xmlns="http://www.w3.org/2000/svg" width="160" height="48" viewBox="0 0 160 48" fill="none"><path d="M154.074 47.407H5.926C2.607 47.407 0 44.8 0 41.481V5.926C0 2.607 2.607 0 5.926 0H154.074C157.393 0 160 2.607 160 5.926V41.48C160 44.799 157.393 47.406 154.074 47.406V47.407Z" fill="black"></path><path d="M154.074 0.948C156.8 0.948 159.052 3.2 159.052 5.926V41.48C159.052 44.206 156.8 46.458 154.074 46.458H5.926C3.2 46.46 0.948 44.207 0.948 41.481V5.926C0.948 3.2 3.2 0.948 5.926 0.948H154.074V0.948ZM154.074 0H5.926C2.607 0 0 2.726 0 5.926V41.48C0 44.799 2.607 47.406 5.926 47.406H154.074C157.393 47.406 160 44.799 160 41.48V5.926C160 2.726 157.393 0 154.074 0Z" fill="#A6A6A6"></path><path d="M56.178 12.089C56.178 13.037 55.941 13.867 55.348 14.459C54.637 15.17 53.808 15.526 52.741 15.526C51.674 15.526 50.844 15.17 50.133 14.459C49.423 13.749 49.067 12.919 49.067 11.852C49.067 10.785 49.422 9.95598 50.133 9.24398C50.844 8.53398 51.674 8.17798 52.741 8.17798C53.215 8.17798 53.689 8.29598 54.163 8.53298C54.637 8.76998 54.993 9.00698 55.23 9.36298L54.637 9.95598C54.163 9.36298 53.57 9.12598 52.741 9.12598C52.03 9.12598 51.319 9.36298 50.844 9.95598C50.252 10.43 50.014 11.141 50.014 11.97C50.014 12.8 50.252 13.511 50.844 13.985C51.437 14.459 52.03 14.815 52.741 14.815C53.571 14.815 54.163 14.578 54.756 13.985C55.111 13.63 55.348 13.155 55.348 12.563H52.741V11.615H56.178V12.089V12.089ZM61.63 9.12598H58.43V11.378H61.393V12.208H58.43V14.459H61.63V15.407H57.48V8.29698H61.629V9.12598H61.63ZM65.54 15.407H64.593V9.12598H62.578V8.29598H67.556V9.12598H65.54V15.407V15.407ZM70.993 15.407V8.29698H71.941V15.407H70.993ZM75.97 15.407H75.022V9.12598H73.007V8.29598H77.867V9.12598H75.852V15.407H75.97ZM87.23 14.459C86.519 15.17 85.689 15.526 84.622 15.526C83.556 15.526 82.726 15.17 82.015 14.459C81.304 13.749 80.948 12.919 80.948 11.852C80.948 10.785 81.304 9.95598 82.015 9.24398C82.725 8.53398 83.555 8.17798 84.622 8.17798C85.689 8.17798 86.519 8.53298 87.23 9.24398C87.94 9.95598 88.296 10.785 88.296 11.852C88.296 12.919 87.941 13.748 87.23 14.459ZM82.726 13.867C83.2 14.341 83.911 14.697 84.622 14.697C85.333 14.697 86.044 14.459 86.519 13.867C86.993 13.393 87.349 12.681 87.349 11.852C87.349 11.022 87.111 10.312 86.519 9.83698C86.044 9.36298 85.333 9.00698 84.622 9.00698C83.912 9.00698 83.2 9.24398 82.726 9.83698C82.252 10.311 81.896 11.022 81.896 11.852C81.896 12.682 82.133 13.392 82.726 13.867ZM89.6 15.407V8.29698H90.667L94.104 13.867V8.29698H95.052V15.407H94.104L90.43 9.59998V15.407H89.6V15.407Z" fill="white" stroke="white" stroke-width="0.625"></path><path d="M80.711 25.8371C77.867 25.8371 75.615 27.9701 75.615 30.9331C75.615 33.7781 77.867 36.0301 80.711 36.0301C83.556 36.0301 85.807 33.8961 85.807 30.9331C85.807 27.8521 83.556 25.8371 80.711 25.8371ZM80.711 33.8971C79.171 33.8971 77.867 32.5931 77.867 30.8151C77.867 29.0371 79.17 27.7331 80.711 27.7331C82.251 27.7331 83.556 28.9191 83.556 30.8151C83.556 32.5931 82.252 33.8961 80.711 33.8961V33.8971ZM69.689 25.8371C66.844 25.8371 64.593 27.9701 64.593 30.9331C64.593 33.7781 66.844 36.0301 69.689 36.0301C72.533 36.0301 74.785 33.8961 74.785 30.9331C74.785 27.8521 72.533 25.8371 69.689 25.8371V25.8371ZM69.689 33.8971C68.149 33.8971 66.844 32.5931 66.844 30.8151C66.844 29.0371 68.148 27.7331 69.689 27.7331C71.229 27.7331 72.533 28.9191 72.533 30.8151C72.533 32.5931 71.23 33.8961 69.689 33.8961V33.8971ZM56.533 27.3771V29.5111H61.63C61.511 30.6961 61.037 31.6441 60.444 32.2371C59.734 32.9481 58.548 33.7771 56.534 33.7771C53.334 33.7771 50.963 31.2891 50.963 28.0891C50.963 24.8891 53.452 22.4001 56.533 22.4001C58.193 22.4001 59.496 23.1111 60.444 23.9401L61.985 22.4001C60.681 21.2151 59.022 20.2671 56.652 20.2671C52.385 20.2671 48.712 23.8221 48.712 28.0891C48.712 32.3561 52.385 35.9111 56.652 35.9111C59.022 35.9111 60.682 35.2001 62.104 33.6591C63.526 32.2371 64 30.2221 64 28.6811C64 28.2071 64 27.7331 63.881 27.3781H56.533V27.3771ZM110.341 29.0371C109.867 27.8521 108.681 25.8371 106.074 25.8371C103.467 25.8371 101.334 27.8521 101.334 30.9331C101.334 33.7781 103.467 36.0301 106.311 36.0301C108.563 36.0301 109.985 34.6071 110.459 33.7781L108.8 32.5931C108.207 33.4231 107.496 34.0151 106.311 34.0151C105.126 34.0151 104.415 33.5411 103.822 32.4751L110.578 29.6301L110.341 29.0371V29.0371ZM103.467 30.6971C103.467 28.8001 105.007 27.7331 106.074 27.7331C106.904 27.7331 107.734 28.2071 107.97 28.8001L103.467 30.6961V30.6971ZM97.897 35.5561H100.148V20.7401H97.896V35.5551L97.897 35.5561ZM94.341 26.9041C93.748 26.3111 92.8 25.7191 91.615 25.7191C89.125 25.7191 86.755 27.9701 86.755 30.8151C86.755 33.6591 89.007 35.7931 91.615 35.7931C92.8 35.7931 93.748 35.2001 94.222 34.6071H94.341V35.3191C94.341 37.2151 93.274 38.2811 91.615 38.2811C90.311 38.2811 89.363 37.3331 89.125 36.5041L87.23 37.3341C87.822 38.6371 89.244 40.2961 91.733 40.2961C94.341 40.2961 96.474 38.7561 96.474 35.0811V26.0741H94.341V26.9041V26.9041ZM91.733 33.8961C90.193 33.8961 88.889 32.5931 88.889 30.8151C88.889 29.0371 90.193 27.7331 91.733 27.7331C93.274 27.7331 94.459 29.0371 94.459 30.8151C94.459 32.5931 93.274 33.8961 91.733 33.8961ZM120.652 20.7411H115.319V35.5561H117.57V29.9861H120.652C123.141 29.9861 125.512 28.2071 125.512 25.3631C125.512 22.5191 123.141 20.7411 120.652 20.7411V20.7411ZM120.77 27.8511H117.57V22.7561H120.77C122.43 22.7561 123.378 24.1781 123.378 25.2441C123.259 26.5481 122.311 27.8521 120.77 27.8521V27.8511ZM134.4 25.7191C132.74 25.7191 131.081 26.4291 130.489 27.9701L132.504 28.8001C132.978 27.9701 133.689 27.7331 134.519 27.7331C135.704 27.7331 136.77 28.4441 136.889 29.6301V29.7481C136.533 29.5111 135.585 29.1561 134.637 29.1561C132.504 29.1561 130.37 30.3411 130.37 32.4741C130.37 34.4891 132.148 35.7931 134.044 35.7931C135.585 35.7931 136.296 35.0811 136.889 34.3701H137.007V35.5561H139.141V29.8661C138.904 27.2591 136.889 25.7191 134.4 25.7191V25.7191ZM134.163 33.8961C133.452 33.8961 132.385 33.5411 132.385 32.5931C132.385 31.4071 133.689 31.0521 134.755 31.0521C135.704 31.0521 136.178 31.2891 136.77 31.5261C136.533 32.9481 135.348 33.8961 134.163 33.8961ZM146.607 26.0741L144.119 32.4741H144L141.393 26.0741H139.023L142.933 35.0811L140.681 40.0591H142.933L148.978 26.0741H146.608H146.607ZM126.697 35.5561H128.948V20.7401H126.696V35.5551L126.697 35.5561Z" fill="white"></path><path d="M12.3261 8.88892C11.9721 9.24392 11.8521 9.83692 11.8521 10.5479V36.7399C11.8521 37.4519 12.0891 38.0439 12.4451 38.3999L12.5631 38.5179L27.2591 23.8219V23.5849L12.3261 8.88892Z" fill="url(#paint0_linear)"></path><path d="M32 28.8001L27.14 23.9401V23.5851L32 18.7251L32.119 18.8451L37.926 22.1631C39.586 23.1111 39.586 24.6521 37.926 25.6001L32 28.8001V28.8001Z" fill="url(#paint1_linear)"></path><path d="M32.119 28.6809L27.141 23.7029L12.326 38.5179C12.919 39.1109 13.748 39.1109 14.815 38.6369L32.119 28.6809Z" fill="url(#paint2_linear)"></path><path d="M32.119 18.7259L14.815 8.8889C13.748 8.2959 12.919 8.4139 12.326 9.0069L27.142 23.7039L32.12 18.7269L32.119 18.7259Z" fill="url(#paint3_linear)"></path><path opacity="0.2" d="M32 28.563L14.815 38.281C13.867 38.874 13.037 38.755 12.445 38.281L12.326 38.4L12.445 38.518C13.037 38.992 13.867 39.111 14.815 38.518L32 28.563V28.563Z" fill="black"></path><path opacity="0.12" d="M12.3261 38.2809C11.9721 37.9259 11.8521 37.3339 11.8521 36.6209V36.7409C11.8521 37.4509 12.0891 38.0439 12.4451 38.3999V38.2809H12.3261ZM37.9261 25.2439L32.0001 28.5629L32.1191 28.6809L37.9261 25.3629C38.7561 24.8889 39.1111 24.2959 39.1111 23.7029C39.1111 24.2959 38.6371 24.7699 37.9261 25.2439V25.2439Z" fill="black"></path><path opacity="0.25" d="M14.8151 9.00698L37.9261 22.164C38.6371 22.638 39.1111 23.112 39.1111 23.704C39.1111 23.112 38.7561 22.519 37.9261 22.045L14.8151 8.88898C13.1551 7.93998 11.8521 8.65198 11.8521 10.548V10.666C11.8521 8.88898 13.1561 8.05898 14.8151 9.00698Z" fill="white"></path><defs><linearGradient id="paint0_linear" x1="21.254" y1="10.323" x2="8.61992" y2="22.9561" gradientUnits="userSpaceOnUse"><stop stop-color="#00A0FF"></stop><stop offset="0.007" stop-color="#00A1FF"></stop><stop offset="0.26" stop-color="#00BEFF"></stop><stop offset="0.512" stop-color="#00D2FF"></stop><stop offset="0.76" stop-color="#00DFFF"></stop><stop offset="1" stop-color="#00E3FF"></stop></linearGradient><linearGradient id="paint1_linear" x1="40.1003" y1="23.7046" x2="11.4191" y2="23.7046" gradientUnits="userSpaceOnUse"><stop stop-color="#FFE000"></stop><stop offset="0.409" stop-color="#FFBD00"></stop><stop offset="0.775" stop-color="#FFA500"></stop><stop offset="1" stop-color="#FF9C00"></stop></linearGradient><linearGradient id="paint2_linear" x1="29.425" y1="28.4123" x2="7.90533" y2="49.9317" gradientUnits="userSpaceOnUse"><stop stop-color="#FF3A44"></stop><stop offset="1" stop-color="#C31162"></stop></linearGradient><linearGradient id="paint3_linear" x1="8.64813" y1="6.72236" x2="18.225" y2="16.2995" gradientUnits="userSpaceOnUse"><stop stop-color="#32A071"></stop><stop offset="0.069" stop-color="#2DA771"></stop><stop offset="0.476" stop-color="#15CF74"></stop><stop offset="0.801" stop-color="#06E775"></stop><stop offset="1" stop-color="#00F076"></stop></linearGradient></defs></svg>