<svg xmlns="http://www.w3.org/2000/svg" xmlns:xlink="http://www.w3.org/1999/xlink" width="792px" height="188px" viewBox="0 0 792 188"><title>TrainerDay-fin-01 Copy 7</title><g id="TrainerDay-fin-01-Copy-7" stroke="none" stroke-width="1" fill="none" fill-rule="evenodd"><polyline id="Fill-1" fill="#FFFFFF" points="109.16 68.785 84.066 68.785 70.191 138.297 40.335 138.297 54.212 68.785 28.949 68.785 33.707 45.186 113.916 45.186 109.16 68.785"></polyline><path d="M160.057,66.185 L155.03,91.748 L144.432,91.748 C137.799,91.748 133.482,94.983 131.936,101.285 L124.515,138.297 L95.916,138.297 L110.284,66.468 L130.249,66.468 L132.56,73.434 C138.271,68.285 144.368,66.185 152.178,66.185 L160.057,66.185" id="Fill-2" fill="#FFFFFF"></path><path d="M386.168,94.844 L412.596,94.844 C411.982,88.578 407.79,85.018 400.819,85.018 C393.864,85.018 388.959,89.121 386.168,94.844 Z M439.119428,95.002 C439.139,99.41 438.457,103.787 437.162,108.546 L383.449,108.546 C383.817,115.832 387.905,119.526 394.994,119.526 C400.459,119.526 405.338,117.289 408.107,113.208 L435.164,113.208 C429.004,130.62 410.829,140.887 391.492,140.887 C370.822,140.887 356.92,126.424 356.92,107.778 C356.92,82.075 377.332,63.767 404.154,63.767 C426.257,63.767 439.119428,76.197 439.119428,95 L439.119428,95.002 L439.119428,95.002 Z" id="Fill-3" fill="#FFFFFF"></path><path d="M499.67,66.185 L494.645,91.748 L484.045,91.748 C477.414,91.748 473.095,94.983 471.551,101.285 L464.128,138.297 L435.531,138.297 L449.897,66.468 L469.862,66.468 L472.175,73.434 C477.886,68.285 483.981,66.185 491.791,66.185 L499.67,66.185" id="Fill-4" fill="#FFFFFF"></path><path d="M557.044,86.784 C557.044,76.863 550.768,70.828 538.902,70.828 L532.676,70.828 L524.241,112.656 L531.016,112.656 C546.737,112.656 557.044,101.24 557.044,86.784 Z M587.511,84.051 C587.511,115.758 562.827,138.297 530.072,138.297 L489.328,138.297 L507.95,45.186 L546.054,45.186 C571.374,45.186 587.511,61.511 587.511,84.051 L587.511,84.051 Z" id="Fill-5" fill="#FFFFFF"></path><path d="M625.944,116.586 C634.874,116.586 642.436,108.623 642.436,99.542 C642.436,92.848 637.926,88.047 630.835,88.047 C621.808,88.047 614.491,95.666 614.491,104.995 C614.491,111.803 618.965,116.586 625.944,116.586 Z M676.283,66.468 L661.919,138.297 L641.813,138.297 L640.147,133.041 C632.879,138.154 624.307,140.885 615.977,140.885 C599.581,140.885 585.495,130.25 585.495,109.349 C585.495,80.81 607.926,63.882 628.857,63.882 C637.159,63.882 644.865,66.704 650.384,72.347 L654.771,66.468 L676.283,66.468 L676.283,66.468 Z" id="Fill-6" fill="#FFFFFF"></path><path d="M763.051,66.468 L718.553,138.358 C704.882,160.397 694.895,165.843 674.821,165.843 L663.708,165.843 L668.467,142.131 L675.026,142.131 C684.607,142.131 688.563,139.655 693.034,131.975 L676.925,66.468 L706.878,66.468 L712.576,102.125 L731.116,66.468 L763.051,66.468" id="Fill-7" fill="#FFFFFF"></path><polyline id="Fill-8" fill="#FFFFFF" points="273.794 73.135 281.238 29.157 241.244 105.029 252.472 105.029 243.184 159.897 288.946 73.135 273.794 73.135"></polyline><path d="M191.88,116.586 C184.903,116.586 180.428,111.803 180.428,104.995 C180.428,95.666 187.744,88.047 196.771,88.047 C203.863,88.047 208.374,92.848 208.374,99.542 C208.374,108.623 200.811,116.586 191.88,116.586 Z M233.443,110.365 L219.797,110.365 L241.785,68.652 L242.222,66.468 L220.708,66.468 L216.323,72.347 C210.806,66.704 203.096,63.882 194.796,63.882 C173.863,63.882 151.432,80.81 151.432,109.349 C151.432,130.25 165.518,140.885 181.916,140.885 C190.246,140.885 198.817,138.154 206.083,133.041 L207.752,138.297 L227.856,138.297 L233.443,110.365 L233.443,110.365 Z" id="Fill-9" fill="#FFFFFF"></path><path d="M331.847,63.882 C322.744,63.882 314.934,66.743 308.894,72.143 L307.529,66.468 L301.717,66.468 L278.129,111.189 L272.708,138.297 L301.305,138.297 L309.308,98.188 C310.944,91.743 315.034,87.915 320.545,87.915 C324.348,87.915 326.488,90.321 326.488,94.523 C326.488,96.682 325.94,98.58 317.975,138.297 L346.574,138.297 C354.724,97.432 355.772,94.16 355.772,88.271 C355.772,73.863 346.562,63.882 331.847,63.882" id="Fill-10" fill="#FFFFFF"></path><polyline id="Fill-11" fill="#FFFFFF" points="287.074 66.468 286.648 68.596 287.77 66.468 287.074 66.468"></polyline></g></svg>